#!OML:ASF F:\VICON\USERDATA\INSTALL\rory3\rory3.ASF
:FULLY-SPECIFIED
:DEGREES
69
root -0.3763480296533196 16.65839649882562 37.76066413725366 5.800001042021844 -4.32171122908306 -6.153974251983899
lfemur -36.1688780198568 -4.241451434081138 -11.960009934939926
ltibia 31.974508542545983
lfoot 4.654099224642484 -2.6228997661265936
ltoes -7.390812712342544
rfemur 15.882742072416288 3.9687460257690454 35.99257976406262
rtibia 50.189601258332935
rfoot -7.846093477910625 -0.7249480937213093
rtoes -16.377175878249176
lowerback 12.891466566638172 3.0997909698181734 6.441654963629986
upperback -1.2753007959516052 5.31223700597174 2.1536944069439055
thorax -8.8124455031387 2.261645122091472 -3.057255542004472
lowerneck -20.837005999502882 -4.124982047895754 -1.7246947267247004
upperneck 12.161895123132332 -5.974526805208618 3.4937360227650633
head 7.328227812568099 -2.458235536341384 0.7701011354323206
lclavicle -1.0458679779477884e-15 2.2790054466537407e-15
lhumerus -67.55149244668802 -1.6002922928378016 91.66362619163557
lradius 91.4901034388683
lwrist 27.06969464138673
lhand -24.558782722811955 3.0026381337562587
lfingers 7.12502
lthumb 1.9377181695310153 32.97590929501614
rclavicle -1.0458679779477884e-15 2.2790054466537407e-15
rhumerus -34.717313094092646 14.901307319558283 -100.37201454875252
rradius 117.18457428091459
rwrist -13.156687428224638
rhand -17.86449869948921 40.760925069647016
rfingers 7.12502
rthumb 8.400756906878874 11.052916705808192
70
root -0.26185988465443005 16.694237835687524 38.443205254002294 4.77931933141555 -3.9109262465367203 -5.299063143166201
lfemur -35.51205354577214 -2.6293147864032558 -14.61304118763584
ltibia 38.747256138535334
lfoot 5.690811059288724 -5.801506162085027
ltoes -5.197957061960355
rfemur 14.890464355050245 2.4813480336343297 33.90165397309191
rtibia 61.15013746868597
rfoot 4.837690256242744 2.9100872596847553
rtoes -15.3327949674355
lowerback 12.811722572469641 3.1015592951242033 5.51191415215623
upperback -1.3557070489104435 5.18712721249857 1.6258968907515512
thorax -8.884815018938882 2.2228389660567904 -2.862628943155032
lowerneck -20.49637933255486 -4.593122760456222 -1.7695802579646043
upperneck 12.595072573675875 -6.614420946813737 3.615883617491434
head 7.410296203335842 -2.7646744050019163 0.7781225775485807
lclavicle -1.3402051161716894e-15 2.065513054481537e-15
lhumerus -69.84904694591667 -0.4635000328480192 90.41750807832517
lradius 89.44352306624694
lwrist 25.985526319916147
lhand -23.679445764018116 3.3955248327347256
lfingers 7.12502
lthumb 2.7869062913758103 33.36497773677239
rclavicle -1.3402051161716894e-15 2.065513054481537e-15
rhumerus -37.19864497814956 13.540934086455284 -100.15910603980228
rradius 117.15392683026812
rwrist -12.819378260417047
rhand -17.826594876429507 40.707673148469645
rfingers 7.12502
rthumb 8.43735161365818 10.966604106046605
71
root -0.13306279717770877 16.887989104973673 39.548405049772846 3.6071170976901588 -3.6495860932758686 -4.242008549773347
lfemur -33.66420168731304 -1.18053088237401 -17.480865603658376
ltibia 45.67324523666235
lfoot 5.141229206073711 -7.788233887349196
ltoes -3.0849027869849683
rfemur 10.391142971630718 0.6999353459893645 31.537728671295223
rtibia 76.13753047386571
rfoot 20.61686277922768 4.709409291010364
rtoes -4.912144390244025
lowerback 13.10621269265216 3.0985146096822724 4.386806011249668
upperback -1.3313410356973217 5.0330993882203146 1.0508268898542923
thorax -9.0333526330051 2.173843553952754 -2.523417890108851
lowerneck -20.20607273452961 -4.774915665113561 -1.8597577603562294
upperneck 12.963302615984272 -6.858863596986242 3.733847342193969
head 7.48083909606049 -2.8771496205860267 0.817925019152367
lclavicle -1.401185798334976e-15 2.0212817658383505e-15
lhumerus -70.97323201829312 -0.3387439290752958 90.09058067467781
lradius 89.06711880742574
lwrist 26.49300216158163
lhand -23.30940524154329 3.69934972450102
lfingers 7.12502
lthumb 3.144226442367394 33.661860786263766
rclavicle -1.401185798334976e-15 2.0212817658383505e-15
rhumerus -40.2166335562961 12.270193790385813 -99.86683741741984
rradius 116.84501626279899
rwrist -12.345705874091264
rhand -17.569081297623704 40.67624526031845
rfingers 7.12502
rthumb 8.685875655969724 10.94854820676229
72
root -0.02305749398110496 17.146483657186373 40.5295786896611 2.535940391931703 -3.7199548893076417 -3.111616499678683
lfemur -30.155642696151006 -0.514747482676857 -20.131891042095134
ltibia 49.64978929990254
lfoot 2.4217940446564983 -7.823584646392576
ltoes -1.9155979326863246
rfemur 2.1927964194709766 -1.194187352163103 29.22152815076629
rtibia 93.28446546492239
rfoot 32.98211671421342 3.2276239131380295
rtoes 10.109488446145313
lowerback 13.793171083262047 3.0407568959335824 3.120183405132183
upperback -1.1054572891088945 4.790699836185437 0.5370775636518794
thorax -9.222543601454841 2.0893708072647614 -1.9923611285172131
lowerneck -20.07449404816431 -4.473497479513345 -1.9605220511875088
upperneck 13.058090389566312 -6.445273540173773 3.7635307556939823
head 7.49693327408302 -2.671162686927995 0.871361392730936
lclavicle -1.3644134145979612e-15 2.0479539884529847e-15
lhumerus -70.31139035898681 -1.34055275283899 90.89095174359575
lradius 90.31228011769352
lwrist 28.437142782394638
lhand -23.95759493288605 3.303851676055555
lfingers 7.12502
lthumb 2.518220775928995 33.261254936726274
rclavicle -1.3644134145979612e-15 2.0479539884529847e-15
rhumerus -42.70001111599083 11.289359802444485 -99.5759084776567
rradius 116.01209053635473
rwrist -11.689729482215533
rhand -17.091437356409525 40.61435011650601
rfingers 7.12502
rthumb 9.146849912922054 10.913627534410097
73
root 0.037381549123895214 17.37854292863998 41.44382372326135 1.705903499053444 -3.7726513080649124 -2.141469842215216
lfemur -25.44550522744101 -0.6832146031958143 -22.276529939875484
ltibia 50.47740130640225
lfoot -1.4575021564970854 -6.58207573650297
ltoes -1.7522358545558525
rfemur -8.062812330334381 -3.312114190529964 27.441910470408455
rtibia 108.62916768747904
rfoot 35.89971579385349 -0.49711555110365957
rtoes 20.655237890688834
lowerback 14.59699225286154 2.822909594073276 1.9553693210992815
upperback -0.7070139167789035 4.340664481375352 0.23012682953345176
thorax -9.368156570884787 1.9141745730215378 -1.3094632137995004
lowerneck -19.981511452572803 -3.8010202350650455 -2.0555463333904647
upperneck 12.933856296213172 -5.512381776772295 3.6640339336057024
head 7.463334285938527 -2.224697091330401 0.915531428093638
lclavicle -1.3217041355941698e-15 2.0789324361539954e-15
lhumerus -67.66783258638856 -3.1931767675787253 92.44810866115273
lradius 92.51319253934835
lwrist 30.678003503599314
lhand -25.273003885455285 1.909614939793994
lfingers 7.12502
lthumb 1.247900597590145 31.868270371924083
rclavicle -1.3217041355941698e-15 2.0789324361539954e-15
rhumerus -44.32916135695141 10.612898599799736 -99.39834947630693
rradius 114.90787120875115
rwrist -10.929231394209435
rhand -16.52828888867655 40.4621499599764
rfingers 7.12502
rthumb 9.69034976521253 10.75670409810825
